<?xml version="1.0" encoding="iso-8859-1"?>
<!-- Generator: Adobe Illustrator 19.0.0, SVG Export Plug-In . SVG Version: 6.00 Build 0)  -->
<svg version="1.1" id="Layer_1" xmlns="http://www.w3.org/2000/svg" xmlns:xlink="http://www.w3.org/1999/xlink" x="0px" y="0px"
	 viewBox="0 0 512 512" style="enable-background:new 0 0 512 512;" xml:space="preserve">
<polygon style="fill:#FAAC45;" points="493.427,204.588 374.685,320.221 402.787,483.65 256.058,406.485 256.058,32.06 
	329.422,180.748 "/>
<polygon style="fill:#FFD248;" points="256.058,32.06 256.058,406.485 109.213,483.65 137.315,320.221 18.573,204.588 
	182.578,180.748 "/>
<path d="M512,198.559l-176.841-25.706L256.063,12.551l-79.22,160.301L0,198.559l128.031,124.678L97.733,499.442l158.324-83.197
	l158.211,83.204l-30.299-176.21L512,198.559z M146.598,317.205L37.145,210.618l151.166-21.975L247.42,69.036v332.229
	l-126.726,66.594L146.598,317.205z M391.305,467.853l-126.61-66.584V69.088l58.989,119.556l151.17,21.975L365.402,317.206
	L391.305,467.853z"/>
<g>
</g>
<g>
</g>
<g>
</g>
<g>
</g>
<g>
</g>
<g>
</g>
<g>
</g>
<g>
</g>
<g>
</g>
<g>
</g>
<g>
</g>
<g>
</g>
<g>
</g>
<g>
</g>
<g>
</g>
</svg>
